<?xml version="1.0" standalone="no"?>
<!DOCTYPE svg PUBLIC "-//W3C//DTD SVG 20010904//EN"
 "http://www.w3.org/TR/2001/REC-SVG-20010904/DTD/svg10.dtd">
<svg version="1.0" xmlns="http://www.w3.org/2000/svg"
 width="194.000000pt" height="194.000000pt" viewBox="0 0 194.000000 194.000000"
 preserveAspectRatio="xMidYMid meet">
<metadata>
Created by potrace 1.11, written by Peter Selinger 2001-2013
</metadata>
<g transform="translate(0.000000,194.000000) scale(0.100000,-0.100000)"
fill="#000000" stroke="none">
<path d="M245 1556 c-94 -108 -154 -229 -190 -380 -19 -82 -23 -120 -20 -225
2 -69 6 -142 10 -161 15 -74 64 -202 105 -274 41 -72 133 -186 149 -186 9 0
121 106 121 115 0 2 -23 33 -50 67 -64 79 -121 196 -146 299 -14 54 -13 246 1
310 13 63 19 81 53 159 20 46 79 135 117 177 l31 34 -60 60 c-33 32 -63 59
-67 59 -4 0 -29 -24 -54 -54z"/>
<path d="M1577 1552 l-58 -58 27 -30 c47 -53 114 -163 138 -226 100 -265 52
-527 -139 -764 l-25 -30 64 -63 63 -62 40 48 c45 54 133 183 133 195 0 4 11
32 25 62 93 204 90 498 -7 716 -27 60 -86 158 -118 194 -54 63 -68 76 -76 76
-6 0 -35 -26 -67 -58z"/>
<path d="M511 1359 c-40 -37 -90 -125 -117 -206 -30 -90 -37 -230 -15 -323 18
-72 83 -198 124 -238 l33 -32 62 60 63 61 -30 37 c-122 152 -118 363 11 524
l21 27 -59 55 c-32 31 -62 55 -65 56 -3 0 -15 -10 -28 -21z"/>
<path d="M1346 1327 c-31 -30 -56 -58 -56 -62 0 -5 12 -23 26 -42 116 -152
114 -357 -4 -506 l-31 -38 62 -60 c34 -32 65 -59 68 -59 10 0 65 74 97 130 63
113 88 276 60 405 -20 96 -115 269 -154 282 -7 2 -37 -21 -68 -50z"/>
<path d="M892 1119 c-175 -87 -123 -348 72 -364 85 -7 172 49 199 129 55 164
-115 312 -271 235z"/>
</g>
</svg>
